# xmcd
#
# Track frame offsets:
#	150
#	10891
#	26263
#	41464
#	59116
#	74569
#	85273
#	100518
#
# Disc length: 1572 seconds
# Revision: 0
# Processed by: cddbd v1.5.2PL0 Copyright (c) Steve Scherf et al.
# Submitted via: dBpowerAMP V12.0
#
DISCID=60062208
DTITLE=Dave Muskett - Double EP [Muskett Music Media] (Shelbyville, IN)
DYEAR=2014
DGENRE=Blues
TTITLE0=Pet That Thing
TTITLE1=She can't give Me the Blues
TTITLE2=Take a Look at this
TTITLE3=Got the need
TTITLE4=She can't give me the blues
TTITLE5=Pet that thing
TTITLE6=Take a look at this
TTITLE7=Got the need
EXTD=
EXTT0=
EXTT1=
EXTT2=
EXTT3=
EXTT4=
EXTT5=
EXTT6=
EXTT7=
PLAYORDER=
